<mxfile host="app.diagrams.net" agent="Mozilla/5.0 (Windows NT 10.0; Win64; x64) AppleWebKit/537.36 (KHTML, like Gecko) Chrome/129.0.0.0 Safari/537.36" version="24.7.16">
  <diagram name="Página-1" id="7qlRAC1Hyz2V4y4gvaCD">
    <mxGraphModel dx="1050" dy="530" grid="1" gridSize="10" guides="1" tooltips="1" connect="1" arrows="1" fold="1" page="1" pageScale="1" pageWidth="827" pageHeight="1169" math="0" shadow="0">
      <root>
        <mxCell id="0" />
        <mxCell id="1" parent="0" />
        <mxCell id="eC1Hu11HOD4TWMjhSHn9-1" value="&lt;u&gt;Sistema&lt;/u&gt;" style="html=1;whiteSpace=wrap;fillColor=#cdeb8b;strokeColor=#36393d;" vertex="1" parent="1">
          <mxGeometry x="300" y="70" width="100" height="20" as="geometry" />
        </mxCell>
        <mxCell id="eC1Hu11HOD4TWMjhSHn9-2" value="&lt;u&gt;Base de Datos&lt;/u&gt;" style="html=1;whiteSpace=wrap;fillColor=#cdeb8b;strokeColor=#36393d;" vertex="1" parent="1">
          <mxGeometry x="550" y="70" width="110" height="20" as="geometry" />
        </mxCell>
        <mxCell id="eC1Hu11HOD4TWMjhSHn9-3" value="Cliente" style="shape=umlActor;verticalLabelPosition=bottom;verticalAlign=top;html=1;outlineConnect=0;" vertex="1" parent="1">
          <mxGeometry x="90" y="50" width="30" height="60" as="geometry" />
        </mxCell>
        <mxCell id="eC1Hu11HOD4TWMjhSHn9-4" value="" style="html=1;points=[[0,0,0,0,5],[0,1,0,0,-5],[1,0,0,0,5],[1,1,0,0,-5]];perimeter=orthogonalPerimeter;outlineConnect=0;targetShapes=umlLifeline;portConstraint=eastwest;newEdgeStyle={&quot;curved&quot;:0,&quot;rounded&quot;:0};" vertex="1" parent="1">
          <mxGeometry x="100" y="160" width="10" height="200" as="geometry" />
        </mxCell>
        <mxCell id="eC1Hu11HOD4TWMjhSHn9-5" value="" style="html=1;points=[[0,0,0,0,5],[0,1,0,0,-5],[1,0,0,0,5],[1,1,0,0,-5]];perimeter=orthogonalPerimeter;outlineConnect=0;targetShapes=umlLifeline;portConstraint=eastwest;newEdgeStyle={&quot;curved&quot;:0,&quot;rounded&quot;:0};" vertex="1" parent="1">
          <mxGeometry x="340" y="160" width="10" height="200" as="geometry" />
        </mxCell>
        <mxCell id="eC1Hu11HOD4TWMjhSHn9-6" value="" style="html=1;points=[[0,0,0,0,5],[0,1,0,0,-5],[1,0,0,0,5],[1,1,0,0,-5]];perimeter=orthogonalPerimeter;outlineConnect=0;targetShapes=umlLifeline;portConstraint=eastwest;newEdgeStyle={&quot;curved&quot;:0,&quot;rounded&quot;:0};" vertex="1" parent="1">
          <mxGeometry x="600" y="160" width="10" height="370" as="geometry" />
        </mxCell>
        <mxCell id="eC1Hu11HOD4TWMjhSHn9-7" value="1 inicia registro de cuenta" style="html=1;verticalAlign=bottom;endArrow=block;curved=0;rounded=0;" edge="1" parent="1" target="eC1Hu11HOD4TWMjhSHn9-5">
          <mxGeometry width="80" relative="1" as="geometry">
            <mxPoint x="110" y="170" as="sourcePoint" />
            <mxPoint x="190" y="170" as="targetPoint" />
          </mxGeometry>
        </mxCell>
        <mxCell id="eC1Hu11HOD4TWMjhSHn9-9" value="11 confirma cuenta" style="html=1;verticalAlign=bottom;endArrow=open;dashed=1;endSize=8;curved=0;rounded=0;" edge="1" parent="1">
          <mxGeometry relative="1" as="geometry">
            <mxPoint x="600" y="490" as="sourcePoint" />
            <mxPoint x="350" y="490" as="targetPoint" />
          </mxGeometry>
        </mxCell>
        <mxCell id="eC1Hu11HOD4TWMjhSHn9-10" value="4 validar datos" style="html=1;verticalAlign=bottom;endArrow=block;curved=0;rounded=0;" edge="1" parent="1">
          <mxGeometry width="80" relative="1" as="geometry">
            <mxPoint x="350" y="250" as="sourcePoint" />
            <mxPoint x="600" y="250" as="targetPoint" />
          </mxGeometry>
        </mxCell>
        <mxCell id="eC1Hu11HOD4TWMjhSHn9-11" value="5 datos validados" style="html=1;verticalAlign=bottom;endArrow=open;dashed=1;endSize=8;curved=0;rounded=0;" edge="1" parent="1">
          <mxGeometry relative="1" as="geometry">
            <mxPoint x="600" y="280" as="sourcePoint" />
            <mxPoint x="350" y="280" as="targetPoint" />
          </mxGeometry>
        </mxCell>
        <mxCell id="eC1Hu11HOD4TWMjhSHn9-13" value="" style="endArrow=none;dashed=1;html=1;dashPattern=1 3;strokeWidth=2;rounded=0;entryX=0.5;entryY=1;entryDx=0;entryDy=0;" edge="1" parent="1" source="eC1Hu11HOD4TWMjhSHn9-4">
          <mxGeometry width="50" height="50" relative="1" as="geometry">
            <mxPoint x="104.5" y="205" as="sourcePoint" />
            <mxPoint x="104.5" y="130" as="targetPoint" />
          </mxGeometry>
        </mxCell>
        <mxCell id="eC1Hu11HOD4TWMjhSHn9-14" value="" style="endArrow=none;dashed=1;html=1;dashPattern=1 3;strokeWidth=2;rounded=0;entryX=0.5;entryY=1;entryDx=0;entryDy=0;exitX=1;exitY=0;exitDx=0;exitDy=5;exitPerimeter=0;" edge="1" parent="1" source="eC1Hu11HOD4TWMjhSHn9-6">
          <mxGeometry width="50" height="50" relative="1" as="geometry">
            <mxPoint x="609" y="150" as="sourcePoint" />
            <mxPoint x="609" y="90" as="targetPoint" />
          </mxGeometry>
        </mxCell>
        <mxCell id="eC1Hu11HOD4TWMjhSHn9-17" value="2 solicita datos" style="html=1;verticalAlign=bottom;endArrow=open;dashed=1;endSize=8;curved=0;rounded=0;" edge="1" parent="1">
          <mxGeometry relative="1" as="geometry">
            <mxPoint x="340" y="200" as="sourcePoint" />
            <mxPoint x="110" y="200" as="targetPoint" />
          </mxGeometry>
        </mxCell>
        <mxCell id="eC1Hu11HOD4TWMjhSHn9-18" value="3 envia datos" style="html=1;verticalAlign=bottom;endArrow=block;curved=0;rounded=0;" edge="1" parent="1">
          <mxGeometry width="80" relative="1" as="geometry">
            <mxPoint x="110" y="230" as="sourcePoint" />
            <mxPoint x="340" y="230" as="targetPoint" />
          </mxGeometry>
        </mxCell>
        <mxCell id="eC1Hu11HOD4TWMjhSHn9-19" value="6 guardar datos en BBDD" style="html=1;verticalAlign=bottom;endArrow=block;curved=0;rounded=0;" edge="1" parent="1">
          <mxGeometry width="80" relative="1" as="geometry">
            <mxPoint x="350" y="310" as="sourcePoint" />
            <mxPoint x="600" y="310" as="targetPoint" />
          </mxGeometry>
        </mxCell>
        <mxCell id="eC1Hu11HOD4TWMjhSHn9-20" value="7 confirma registro" style="html=1;verticalAlign=bottom;endArrow=open;dashed=1;endSize=8;curved=0;rounded=0;" edge="1" parent="1">
          <mxGeometry relative="1" as="geometry">
            <mxPoint x="600" y="344.5" as="sourcePoint" />
            <mxPoint x="350" y="344.5" as="targetPoint" />
          </mxGeometry>
        </mxCell>
        <mxCell id="eC1Hu11HOD4TWMjhSHn9-21" value="" style="html=1;points=[[0,0,0,0,5],[0,1,0,0,-5],[1,0,0,0,5],[1,1,0,0,-5]];perimeter=orthogonalPerimeter;outlineConnect=0;targetShapes=umlLifeline;portConstraint=eastwest;newEdgeStyle={&quot;curved&quot;:0,&quot;rounded&quot;:0};" vertex="1" parent="1">
          <mxGeometry x="100" y="400" width="10" height="130" as="geometry" />
        </mxCell>
        <mxCell id="eC1Hu11HOD4TWMjhSHn9-22" value="" style="html=1;points=[[0,0,0,0,5],[0,1,0,0,-5],[1,0,0,0,5],[1,1,0,0,-5]];perimeter=orthogonalPerimeter;outlineConnect=0;targetShapes=umlLifeline;portConstraint=eastwest;newEdgeStyle={&quot;curved&quot;:0,&quot;rounded&quot;:0};" vertex="1" parent="1">
          <mxGeometry x="340" y="400" width="10" height="130" as="geometry" />
        </mxCell>
        <mxCell id="eC1Hu11HOD4TWMjhSHn9-24" value="8 enviar correo de confirmación" style="html=1;verticalAlign=bottom;endArrow=open;dashed=1;endSize=8;curved=0;rounded=0;" edge="1" parent="1">
          <mxGeometry relative="1" as="geometry">
            <mxPoint x="340" y="410" as="sourcePoint" />
            <mxPoint x="110" y="410" as="targetPoint" />
          </mxGeometry>
        </mxCell>
        <mxCell id="eC1Hu11HOD4TWMjhSHn9-25" value="9 verifica cuenta" style="html=1;verticalAlign=bottom;endArrow=block;curved=0;rounded=0;" edge="1" parent="1">
          <mxGeometry width="80" relative="1" as="geometry">
            <mxPoint x="110" y="440" as="sourcePoint" />
            <mxPoint x="340" y="440" as="targetPoint" />
          </mxGeometry>
        </mxCell>
        <mxCell id="eC1Hu11HOD4TWMjhSHn9-27" value="10 actualiza estado" style="html=1;verticalAlign=bottom;endArrow=block;curved=0;rounded=0;" edge="1" parent="1">
          <mxGeometry width="80" relative="1" as="geometry">
            <mxPoint x="350" y="460" as="sourcePoint" />
            <mxPoint x="600" y="460" as="targetPoint" />
          </mxGeometry>
        </mxCell>
        <mxCell id="eC1Hu11HOD4TWMjhSHn9-28" value="12 cuenta activada" style="html=1;verticalAlign=bottom;endArrow=block;curved=0;rounded=0;entryX=1;entryY=1;entryDx=0;entryDy=-5;entryPerimeter=0;" edge="1" parent="1">
          <mxGeometry width="80" relative="1" as="geometry">
            <mxPoint x="340" y="520" as="sourcePoint" />
            <mxPoint x="110" y="520" as="targetPoint" />
          </mxGeometry>
        </mxCell>
        <mxCell id="eC1Hu11HOD4TWMjhSHn9-29" value="" style="endArrow=none;dashed=1;html=1;dashPattern=1 3;strokeWidth=2;rounded=0;entryX=0.5;entryY=1;entryDx=0;entryDy=0;" edge="1" parent="1" source="eC1Hu11HOD4TWMjhSHn9-21">
          <mxGeometry width="50" height="50" relative="1" as="geometry">
            <mxPoint x="104.5" y="435" as="sourcePoint" />
            <mxPoint x="104.5" y="360" as="targetPoint" />
          </mxGeometry>
        </mxCell>
        <mxCell id="eC1Hu11HOD4TWMjhSHn9-30" value="" style="endArrow=none;dashed=1;html=1;dashPattern=1 3;strokeWidth=2;rounded=0;entryX=0.5;entryY=1;entryDx=0;entryDy=0;" edge="1" parent="1">
          <mxGeometry width="50" height="50" relative="1" as="geometry">
            <mxPoint x="345" y="400" as="sourcePoint" />
            <mxPoint x="344.5" y="360" as="targetPoint" />
          </mxGeometry>
        </mxCell>
        <mxCell id="eC1Hu11HOD4TWMjhSHn9-31" value="" style="endArrow=none;dashed=1;html=1;dashPattern=1 3;strokeWidth=2;rounded=0;entryX=0.5;entryY=1;entryDx=0;entryDy=0;" edge="1" parent="1" source="eC1Hu11HOD4TWMjhSHn9-5">
          <mxGeometry width="50" height="50" relative="1" as="geometry">
            <mxPoint x="345" y="130" as="sourcePoint" />
            <mxPoint x="344.5" y="90" as="targetPoint" />
          </mxGeometry>
        </mxCell>
      </root>
    </mxGraphModel>
  </diagram>
</mxfile>
